<svg width="38" height="38" viewBox="0 0 38 38" fill="none" xmlns="http://www.w3.org/2000/svg">
<rect width="38" height="38" rx="10" fill="#00909E"/>
<path d="M10.9375 14.5352H15.0195L19.1016 23.207H18.5547L22.2266 14.5352H26.3281L26.3867 15.5117L25.1367 15.8047C25.1237 15.974 25.1237 16.2669 25.1367 16.6836C25.1497 17.0872 25.1628 17.6146 25.1758 18.2656L25.3125 21.6836C25.3385 22.2305 25.3581 22.7188 25.3711 23.1484C25.3971 23.5781 25.4232 23.9297 25.4492 24.2031C25.4753 24.4766 25.4948 24.6458 25.5078 24.7109L26.7383 25.0234L26.6797 26H21.3867L21.3281 25.0234L22.5781 24.7109C22.5911 24.6589 22.5977 24.5091 22.5977 24.2617C22.6107 24.0013 22.6172 23.6562 22.6172 23.2266C22.6172 22.7969 22.6107 22.2891 22.5977 21.7031L22.5391 15.1016H23.4375L18.7891 26.0586H17.5586L12.3633 15.1016H13.5547L13.5742 21.8203C13.5742 22.8229 13.5807 23.5391 13.5938 23.9688C13.6068 24.3854 13.6198 24.6328 13.6328 24.7109L15 25.0234L14.9414 26H10.6641L10.6055 25.0234L11.9727 24.7109C11.9857 24.6328 11.9922 24.457 11.9922 24.1836C12.0052 23.8971 12.0182 23.5586 12.0312 23.168C12.0443 22.7773 12.0508 22.3737 12.0508 21.957L12.1094 18.3047C12.1224 17.6146 12.1224 17.0677 12.1094 16.6641C12.1094 16.2604 12.1094 15.9805 12.1094 15.8242L10.8789 15.5117L10.9375 14.5352ZM30.1953 26.1953C29.6875 26.1953 29.2513 26.026 28.8867 25.6875C28.5352 25.3359 28.3594 24.9128 28.3594 24.418C28.3594 24.0794 28.4375 23.7734 28.5938 23.5C28.763 23.2266 28.9844 23.0117 29.2578 22.8555C29.5443 22.6862 29.8503 22.6016 30.1758 22.6016C30.6966 22.6016 31.1328 22.7773 31.4844 23.1289C31.849 23.4805 32.0312 23.9102 32.0312 24.418C32.0312 24.9128 31.849 25.3359 31.4844 25.6875C31.1328 26.026 30.7031 26.1953 30.1953 26.1953Z" fill="white"/>
</svg>
